<?xml version="1.0" encoding="UTF-8"?>
<svg version="1.1" xmlns="http://www.w3.org/2000/svg" width="512" height="512">
<path d="M0 0 C162.36 0 324.72 0 492 0 C492.0825 42.735 492.165 85.47 492.25 129.5 C492.28641602 142.98037109 492.32283203 156.46074219 492.36035156 170.34960938 C492.37841797 186.84472656 492.37841797 186.84472656 492.3817749 194.57336426 C492.38549281 199.9569001 492.40011325 205.3402737 492.42230225 210.72375488 C492.45061572 217.60341853 492.45794268 224.48285052 492.4522891 231.36256886 C492.45347029 233.87947783 492.46133148 236.3963953 492.47686052 238.91325665 C492.61996939 263.24973423 489.35899538 283.5286238 472 302 C456.98962626 317.16865536 437.91849334 324.26686201 416.74510354 324.40589231 C415.36739591 324.4001005 413.98968947 324.39401966 412.61198425 324.38768005 C411.11058589 324.39186343 409.6091907 324.3973464 408.10780126 324.40399987 C404.02201544 324.41834177 399.93643327 324.41424537 395.85063684 324.40683305 C391.42854807 324.40207551 387.00650175 324.41463399 382.58442688 324.42485046 C373.93648865 324.44199371 365.28862321 324.44288775 356.64067241 324.43763756 C349.60691513 324.43358607 342.57317926 324.43505101 335.53942299 324.44038582 C334.53599665 324.44113424 333.5325703 324.44188266 332.4987371 324.44265376 C330.459868 324.44418534 328.42099891 324.44572369 326.38212983 324.44726873 C307.28769677 324.46097772 288.19330475 324.45556747 269.09887264 324.44408352 C251.65805156 324.43415402 234.21733661 324.44708979 216.7765319 324.47101771 C198.83704871 324.49544298 180.89761488 324.50500809 162.9581154 324.49836498 C152.89898327 324.49488023 142.83993271 324.49705554 132.78081322 324.51461601 C124.21733982 324.52938097 115.65400544 324.5299176 107.09053465 324.5125451 C102.72784521 324.50406774 98.36540364 324.50180495 94.00272751 324.51719666 C89.99730337 324.53115213 85.99233691 324.52614335 81.98693851 324.50695742 C80.54964942 324.50323003 79.11232269 324.50602346 77.67506745 324.51656907 C56.52355272 324.66054245 37.66293211 318.60949596 22 304 C6.95569715 289.11775427 -0.15763211 270.42601759 -0.36076355 249.52812195 C-0.38082819 244.87357561 -0.36201572 240.2196982 -0.34057617 235.56518555 C-0.33965615 232.95039032 -0.34005937 230.33559434 -0.34167194 227.72079945 C-0.34325852 221.4512194 -0.32948903 215.18176963 -0.31016796 208.91222294 C-0.28846599 201.65099202 -0.28617815 194.38980571 -0.28381348 187.12854004 C-0.26809818 167.98150623 -0.22621449 148.83450112 -0.1875 129.6875 C-0.125625 86.890625 -0.06375 44.09375 0 0 Z M215.52734375 78.15625 C207.02063817 88.42521428 204.96400811 98.88375219 205.79736328 112.00390625 C206.81793345 122.0571372 212.77881024 131.03626536 219.98046875 137.8828125 C229.55167179 145.48628318 239.93914471 147.98021085 252 147 C263.87977636 144.7822534 273.03687946 139.245497 280.4375 129.6875 C287.57222309 118.97809019 289.46813858 108.66711256 288 96 C285.75717306 85.8210162 278.77485422 77.64761975 270.53515625 71.5703125 C251.89992544 60.02738063 230.73264987 61.84185096 215.52734375 78.15625 Z M184.25 199.3125 C178.84587115 204.80278261 173.9590258 210.35611762 170 217 C169.51015625 217.8146875 169.0203125 218.629375 168.515625 219.46875 C164.74366729 225.99550829 163.13484012 231.40852668 164 239 C166.01398159 245.89357127 169.87643409 252.38097841 176.0234375 256.28515625 C180.9824895 258.85685794 185.29068987 260.12092101 190.90019226 260.14044189 C192.37823586 260.14900711 192.37823586 260.14900711 193.88613892 260.15774536 C195.49843887 260.15942215 195.49843887 260.15942215 197.14331055 260.16113281 C198.28035934 260.16609772 199.41740814 260.17106262 200.58891296 260.17617798 C204.35485437 260.19079604 208.12075362 260.19760155 211.88671875 260.203125 C214.50503033 260.20887737 217.12334189 260.21463509 219.74165344 260.22039795 C224.53311647 260.22996566 229.32457043 260.23586446 234.11604184 260.2388947 C241.15176947 260.2433695 248.18730225 260.26089266 255.22297066 260.2898953 C261.33011913 260.31418979 267.43718769 260.32184262 273.5443821 260.32357025 C276.13545606 260.32659258 278.72652928 260.33460687 281.31757164 260.34775543 C284.94843553 260.36486327 288.57882864 260.3629236 292.2097168 260.35644531 C293.27446228 260.3656601 294.33920776 260.37487488 295.43621826 260.3843689 C304.93180851 260.33145801 312.26170966 258.56145028 319.2734375 251.96875 C324.16294233 246.39338703 326.43841227 239.64394403 326.26171875 232.25 C324.6002106 217.9659896 311.46017857 203.87819589 301 195 C289.85302475 186.27777558 289.85302475 186.27777558 276.71875 183.17578125 C274.0955148 183.65311044 271.56935188 184.28774135 269 185 C250.35124302 190.09067577 233.10534586 189.69574826 214.72265625 183.8046875 C203.07485496 180.36215226 191.80997214 191.79732216 184.25 199.3125 Z " fill="#EB5D27" transform="translate(10,176)"/>
<path d="M0 0 C1.50604366 -0.00374079 3.01208537 -0.00834401 4.51812404 -0.01373065 C8.63989854 -0.02592347 12.76159165 -0.02570457 16.88338006 -0.02334189 C21.33552486 -0.02293278 25.7876439 -0.03398205 30.23977661 -0.04345703 C38.956897 -0.06004843 47.67399035 -0.06556577 56.39112521 -0.06668179 C63.48078515 -0.0676333 70.57043619 -0.07174876 77.66009331 -0.07808304 C97.77940928 -0.09569165 117.89870394 -0.10492269 138.01802767 -0.10342209 C139.64394994 -0.10330222 139.64394994 -0.10330222 141.30271912 -0.10317993 C142.38799764 -0.10309817 143.47327617 -0.10301641 144.59144192 -0.10293217 C162.16904953 -0.10211975 179.74657134 -0.12124741 197.32415415 -0.14945666 C215.3911607 -0.1782215 233.45812546 -0.19199493 251.52515548 -0.19026911 C261.66090674 -0.18960638 271.79656809 -0.19504742 281.93229866 -0.21662521 C290.56435242 -0.23488459 299.19627554 -0.23914554 307.8283403 -0.22560637 C312.2273303 -0.21910019 316.62607004 -0.2188738 321.02503586 -0.23631287 C325.06267221 -0.25215389 329.09986217 -0.24906897 333.13748836 -0.2317446 C334.58769836 -0.22869872 336.0379426 -0.2322146 337.48811216 -0.24346475 C358.25206194 -0.39370505 376.80791565 5.97712065 392.13059998 20.26742554 C404.58344775 32.58392827 410.3661407 46.32735879 414.13059998 63.26742554 C414.13059998 83.39742554 414.13059998 103.52742554 414.13059998 124.26742554 C251.77059998 124.26742554 89.41059998 124.26742554 -77.86940002 124.26742554 C-77.86940002 43.16798839 -77.86940002 43.16798839 -55.78736877 20.09164429 C-40.35896957 5.3502239 -20.81838023 -0.04916592 0 0 Z M-12.24440002 49.70492554 C-15.46038504 54.77628652 -16.39352557 59.29239428 -15.86940002 65.26742554 C-13.77210357 71.5593149 -10.71376481 76.39273056 -5.11940002 80.07992554 C1.14517847 82.36890614 6.95183463 83.1977597 13.20872498 80.48226929 C17.73114198 77.62358699 20.88069825 73.38682411 23.56809998 68.82992554 C24.96806368 62.45231313 24.76272015 56.90092943 21.54075623 51.12680054 C18.35575926 46.92719235 14.10389454 43.92519039 9.13059998 42.26742554 C-0.15400495 41.21747021 -5.75769934 43.0475222 -12.24440002 49.70492554 Z M68.25559998 49.14242554 C64.60161143 54.5159381 63.16593406 59.77119433 64.13059998 66.26742554 C66.06632071 72.43391315 69.72521395 76.7892763 75.13059998 80.26742554 C81.58604715 82.96697617 86.83036169 82.45551132 93.25559998 80.14242554 C98.26940636 76.87255181 102.68218446 72.20592913 104.13059998 66.26742554 C104.69930729 59.21545481 103.25081908 54.64407078 99.44309998 48.57992554 C95.01586847 44.15269404 90.41091329 42.04762413 84.13059998 41.76742554 C77.6600787 42.06560624 72.60956051 44.31879579 68.25559998 49.14242554 Z " fill="#EB5D27" transform="translate(87.86940002441406,11.732574462890625)"/>
</svg>
